<?xml version="1.0" encoding="utf-8"?>
<!-- Generator: Adobe Illustrator 16.0.0, SVG Export Plug-In . SVG Version: 6.00 Build 0)  -->
<!DOCTYPE svg PUBLIC "-//W3C//DTD SVG 1.0//EN" "http://www.w3.org/TR/2001/REC-SVG-20010904/DTD/svg10.dtd">
<svg version="1.0" id="Layer_1" xmlns="http://www.w3.org/2000/svg" xmlns:xlink="http://www.w3.org/1999/xlink" x="0px" y="0px"
	 width="48px" height="48px" viewBox="0 0 48 48" enable-background="new 0 0 48 48" xml:space="preserve">
<polygon opacity="0.75" fill="#6B0000" points="40.405,40.403 24.002,47.197 7.6,40.403 0.804,24 7.598,7.597 24.002,0.803 
	40.405,7.596 47.199,24 "/>
<polygon opacity="0.75" fill="#6B0000" points="24.002,24 7.598,7.597 0.804,24 "/>
<polygon opacity="0.5" fill="#6B0000" points="24.002,24 0.804,24.001 7.598,40.404 "/>
<polygon opacity="0.5" fill="#6B0000" points="24.001,24.001 24.001,0.803 7.598,7.597 "/>
<polygon opacity="0.25" fill="#6B0000" points="24.003,24.001 40.406,7.597 24.003,0.803 "/>
<polygon opacity="0.75" fill="#6B0000" points="24.001,24.002 7.597,40.406 24.001,47.2 "/>
<polygon fill="#6B0000" points="24.003,24.001 24.004,47.199 40.406,40.404 "/>
<polygon opacity="0.75" fill="#6B0000" points="24.003,24 40.407,40.404 47.201,24 "/>
<polygon opacity="0.75" fill="#FFFFFF" points="3.616,24 9.583,9.584 13.686,13.687 9.417,24 "/>
<polyline opacity="0.25" fill="#FFFFFF" points="9.57,38.411 3.617,24 0.804,24 7.6,40.403 9.581,38.422 "/>
<polyline opacity="0.5" fill="#FFFFFF" points="3.603,23.984 9.584,9.584 7.594,7.595 0.801,24 3.603,24 "/>
<polyline opacity="0.25" fill="#FFFFFF" points="9.59,9.578 24.002,3.626 24.002,0.813 7.598,7.607 9.578,9.589 "/>
<polyline opacity="0.12" fill="#FFFFFF" points="24.018,3.609 38.418,9.593 40.407,7.603 24.002,0.808 24.002,3.609 "/>
<polyline opacity="0.12" fill="#FFFFFF" points="23.987,44.396 9.587,38.413 7.598,40.402 24.002,47.197 24.002,44.396 "/>
<polygon opacity="0.5" fill="#FFFFFF" points="9.584,9.599 23.997,3.625 23.997,9.427 13.687,13.702 "/>
<polygon opacity="0.5" fill="#FFFFFF" points="9.586,38.413 3.612,24 9.415,24 13.689,34.311 "/>
<polygon opacity="0.25" fill="#FFFFFF" points="23.996,44.397 9.581,38.431 13.684,34.327 23.996,38.596 "/>
<polygon opacity="0.25" fill="#FFFFFF" points="24.002,3.628 38.418,9.595 34.315,13.699 24.002,9.43 "/>
<polygon opacity="0.12" fill="#FFFFFF" points="38.409,38.428 23.996,44.401 23.996,38.6 34.307,34.324 "/>
<polygon opacity="0.12" fill="#FFFFFF" points="38.439,9.589 44.413,24.002 38.611,24.002 34.337,13.691 "/>
<polygon opacity="0.25" fill="#FFFFFF" points="44.41,23.998 38.442,38.414 34.34,34.312 38.608,24 "/>
<line fill="none" x1="2.571" y1="15.123" x2="24.002" y2="24"/>
<polygon fill="#FFFFFF" points="6.609,16.795 9.417,24 13.686,13.687 "/>
<polygon opacity="0.75" fill="#FFFFFF" points="41.416,31.207 38.607,24.002 34.34,34.315 "/>
<polygon opacity="0.25" fill="#FFFFFF" points="31.197,41.395 34.307,34.314 23.997,38.589 "/>
</svg>
